<svg id="eh4BFad1Gwk1" xmlns="http://www.w3.org/2000/svg" xmlns:xlink="http://www.w3.org/1999/xlink" viewBox="0 0 16 16" shape-rendering="geometricPrecision" text-rendering="geometricPrecision"><ellipse rx="8" ry="8.049281" transform="translate(8 8.049281)" fill="#fff" stroke-width="0"/><g transform="matrix(.381019 0 0 0.382387 4.951848 4.940904)"><path d="M10.5,8.5C10.5,9.880712,9.380712,11,8,11s-2.5-1.119288-2.5-2.5s1.119288-2.5,2.5-2.5s2.5,1.119288,2.5,2.5Z"/><path d="M2,4C0.895431,4,0,4.895431,0,6v6c0,1.104569.895431,2,2,2h12c1.104569,0,2-.895431,2-2v-6c0-1.104569-.895431-2-2-2h-1.172c-.53039-.000113-1.039015-.210901-1.414-.586l-.828-.828c-.374985-.375099-.88361-.585887-1.414-.586h-2.344c-.53039.000113-1.039015.210901-1.414.586l-.828.828c-.374985.375099-.88361.585887-1.414.586L2,4Zm.5,2C2.223858,6,2,5.776142,2,5.5s.223858-.5.5-.5.5.223858.5.5-.223858.5-.5.5Zm9,2.5C11.5,10.432997,9.932997,12,8,12s-3.5-1.567003-3.5-3.5s1.567003-3.5,3.5-3.5s3.5,1.567003,3.5,3.5Z"/></g></svg>
