<svg id="e8A9MUpmbZr1" xmlns="http://www.w3.org/2000/svg" xmlns:xlink="http://www.w3.org/1999/xlink" viewBox="0 0 100 100" shape-rendering="geometricPrecision" text-rendering="geometricPrecision"><ellipse rx="50" ry="50" transform="translate(50 50)" fill="#fff" stroke-width="0"/><g transform="matrix(.637789 0 0 0.62286 18.11055 18.857)"><path d="M87,38h-43v24h43c3.9,0,7-3.1,7-7v-10c0-3.9-3.1-7-7-7ZM69,54h-10c-2.2,0-4-1.8-4-4s1.8-4,4-4h10c2.2,0,4,1.8,4,4s-1.8,4-4,4ZM14,50c0-.6-.4-1-1-1h-8c-.6,0-1,.4-1,1s.4,1,1,1h8c.6,0,1-.4,1-1ZM9.1,31.6c-.4-.4-1-.4-1.4,0s-.4,1,0,1.4l5.7,5.7c.2.2.5.3.7.3s.5-.1.7-.3c.4-.4.4-1,0-1.4L9.1,31.6Zm4.2,29.7L7.6,67c-.4.4-.4,1,0,1.4.2.2.5.3.7.3s.5-.1.7-.3l5.7-5.7c.4-.4.4-1,0-1.4s-1-.4-1.4,0Z" transform="matrix(0 1-1 0 100 1)"/><path d="M32,69.5l10-4.2v-30.6L32,30.5ZM57,50c0,1.1.9,2,2,2h4v-4h-4c-1.1,0-2,.9-2,2ZM20,72h10v-44h-10ZM69,48h-4v4h4c1.1,0,2-.9,2-2s-.9-2-2-2Z" transform="matrix(0 1-1 0 100 1.16507)"/></g></svg>
