<svg id="eZwLlexs6NC1" xmlns="http://www.w3.org/2000/svg" xmlns:xlink="http://www.w3.org/1999/xlink" viewBox="0 0 1900 400" shape-rendering="geometricPrecision" text-rendering="geometricPrecision"><g transform="matrix(2.789997 0 0 2.789997-343.088417-458.894601)"><g transform="matrix(11.6347 0 0 11.6347 444.048 240.165)"><g><g transform="translate(-.0003-3.368)"><path d="M15.384,6.115c.101764-.098832.155157-.237262.146117-.378832s-.079608-.272083-.193117-.357168C13.20502,3.828947,10.635904,2.995919,8,3c-2.741,0-5.277.882-7.337,2.379-.113646.08493-.184407.215362-.19364.356937s.043987.280092.14564.379063c.180484.177768.463063.19892.668.05C3.238141,4.753988,5.588876,3.996307,8,4c2.507,0,4.827.802,6.716,2.164.205.148.49.13.668-.049Z" transform="translate(-7.9997-4.632)"/></g><g transform="translate(-.0006 1.6462)"><path d="M13.229,8.271c.104347-.100682.157824-.242991.145606-.387477s-.088833-.275793-.208606-.357523C11.628389,6.527191,9.833537,5.997004,8,6c-1.905,0-3.68.56-5.166,1.526-.120408.081261-.19754.212677-.20978.357424s.041728.28725.14678.387576c.175484.171273.446156.198257.652.065C4.789024,7.461057,6.377798,6.997303,8,7c1.621862-.002505,3.210262.461242,4.576,1.336.206.132.48.108.653-.065Zm-2.183,2.183c.226-.226.185-.605-.1-.75C10.033497,9.239646,9.023857,8.998374,8,9c-1.06,0-2.062.254-2.946.704-.285.145-.326.524-.1.75l.015.015c.16.16.407.19.611.09C6.333228,10.189841,7.161174,9.998593,8,10c.868,0,1.69.201,2.42.56.203.1.45.07.61-.091l.016-.015ZM9.06,12.44c.196-.196.198-.52-.04-.66-.308516-.183638-.660967-.280389-1.02-.28-.359033-.000389-.711484.096362-1.02.28-.238.14-.236.464-.04.66l.706.706c.19525.195191.51175.195191.707,0l.707-.707Z" transform="translate(-7.9994-9.6462)"/></g></g></g><g transform="matrix(10.7126 0 0 10.7126 223.273 240.165)"><path d="M0,11.5c0-.276142.223858-.5.5-.5h2c.276142,0,.5.223858.5.5v2c0,.276142-.223858.5-.5.5h-2c-.276142,0-.5-.223858-.5-.5v-2Zm4-3c0-.276142.223858-.5.5-.5h2c.276142,0,.5.223858.5.5v5c0,.276142-.223858.5-.5.5h-2c-.276142,0-.5-.223858-.5-.5v-5Zm4-3c0-.276142.223858-.5.5-.5h2c.276142,0,.5.223858.5.5v8c0,.276142-.223858.5-.5.5h-2c-.276142,0-.5-.223858-.5-.5v-8Zm4-3c0-.276142.223858-.5.5-.5h2c.276142,0,.5.223858.5.5v11c0,.276142-.223858.5-.5.5h-2c-.276142,0-.5-.223858-.5-.5v-11Z" transform="translate(-7.5-8)"/></g><g transform="matrix(11.7494 0 0 11.7494 687.199 239.248)"><g><g transform="translate(-3.5 0)"><path d="M2,6h5v4h-5v-4Z" transform="translate(-4.5-8)"/></g><g><path d="M2,4C0.895431,4,0,4.895431,0,6v4c0,1.104569.895431,2,2,2h10c1.104569,0,2-.895431,2-2v-4c0-1.104569-.895431-2-2-2L2,4ZM12,5c.552285,0,1,.447715,1,1v4c0,.552285-.447715,1-1,1h-10c-.552285,0-1-.447715-1-1v-4c0-.552285.447715-1,1-1h10Zm4,3c0,.828427-.671573,1.5-1.5,1.5v-3c.828427,0,1.5.671573,1.5,1.5Z" transform="translate(-8-8)"/></g></g></g></g></svg>
